<svg width="40" height="40" viewBox="0 0 40 40" fill="none" xmlns="http://www.w3.org/2000/svg">
<g filter="url(#filter0_i_18_916)">
<g clip-path="url(#clip0_18_916)">
<path d="M11.6665 16.6666H1.6665V6.66662M1.6665 16.6666L9.39984 9.39996C11.7014 7.10232 14.6873 5.61491 17.9076 5.16182C21.128 4.70873 24.4084 5.31451 27.2546 6.8879C30.1007 8.46128 32.3584 10.917 33.6875 13.8851C35.0167 16.8532 35.3452 20.1729 34.6235 23.3439C33.9019 26.5149 32.1693 29.3655 29.6867 31.4662C27.2041 33.5669 24.1061 34.8039 20.8594 34.9907C17.6126 35.1776 14.3931 34.3042 11.6859 32.5022C8.97873 30.7003 6.93049 28.0673 5.84984 25"
stroke="#FFFFFF" stroke-width="3.5" stroke-linecap="round" stroke-linejoin="round"/>
</g>
</g>
<defs>
<filter id="filter0_i_18_916" x="0" y="0" width="40" height="42" filterUnits="userSpaceOnUse" color-interpolation-filters="sRGB">
<feFlood flood-opacity="0" result="BackgroundImageFix"/>
<feBlend mode="normal" in="SourceGraphic" in2="BackgroundImageFix" result="shape"/>
<feColorMatrix in="SourceAlpha" type="matrix" values="0 0 0 0 0 0 0 0 0 0 0 0 0 0 0 0 0 0 127 0" result="hardAlpha"/>
<feOffset dy="2"/>
<feGaussianBlur stdDeviation="1"/>
<feComposite in2="hardAlpha" operator="arithmetic" k2="-1" k3="1"/>
<feColorMatrix type="matrix" values="0 0 0 0 0 0 0 0 0 0 0 0 0 0 0 0 0 0 0.15 0"/>
<feBlend mode="normal" in2="shape" result="effect1_innerShadow_18_916"/>
</filter>
<clipPath id="clip0_18_916">
<rect width="40" height="40" fill="white"/>
</clipPath>
</defs>
</svg>
